<svg version="1" xmlns="http://www.w3.org/2000/svg" width="682.667" height="682.667" viewBox="0 0 512.000000 512.000000"><path d="M247.5 21.7c-46.9 1.5-94.4 18.4-133.5 47.7-10.9 8.2-33 29.7-41.4 40.4-31.5 39.9-48.1 84.8-51.2 138.2-1.5 25.9 4.3 61.9 14.2 88.7 26.9 73.2 88.8 128.5 164.4 147.2 20.6 5 33.1 6.5 56 6.5s35.4-1.5 56-6.5c72.5-17.9 132.7-69.6 160.9-138.3 12.1-29.5 17.4-56.6 17.5-89.1 0-39.4-9.7-78.6-27.6-111.2l-3.9-7.2-7.5 5.2c-22.2 15.3-34.7 30.9-49.4 61.2-9.3 19.2-13.3 29.1-21.6 53.5l-6.3 18.5 7.7.6c10.8.9 18.2 2 18.2 2.7-.1 2.1-3.8 23.4-4.2 23.7-.2.3-3.1 0-6.4-.5-3.2-.6-9.9-1-14.9-1h-9l-3 7.8c-4.1 10.7-12.5 27-18.5 35.6-21.2 30.7-60.7 56.6-93.9 61.7-18.1 2.8-34.3-4.6-41.1-18.6-2.9-6-3.8-18.2-2-26.4 4.6-20.9 25.9-43.6 56-59.4 21.1-11.2 40.3-16.9 63.3-18.9 9.7-.8 13.6-1.5 13.3-2.3-1.4-3.6 7.4-34 16.6-57.4 13.5-34.3 28.8-58.1 47.1-72.9l7.8-6.2h-8.8c-37.9 0-75.7 13.6-94.4 33.8-8.7 9.4-11.3 16.8-9.7 28.2 1.7 12.7 11.5 26.8 28.7 41.4 4.4 3.8 8.1 7.2 8.1 7.6 0 .6-11.2 16.3-13 18.4-1 1-12.4-5.6-22.6-13.2-9.4-7-21.6-19.8-26.2-27.5-7.2-12-10.8-28.4-9.1-41.6 1.7-14 7.1-24.9 17.9-36.4 18.1-19.3 40.5-31.4 73.9-39.8 21.1-5.3 38.7-7.2 63.3-6.8 17.3.4 19.5.2 18.8-1.1-1.8-3.4-22.9-24.6-31.9-32.1-44-36.8-100.3-56-158.6-54.2zm-22.3 83.5c4.5 1.3 12.2 7.7 14.3 11.9.8 1.5 2 5 2.6 7.8 4.4 20.7-20.7 54.6-56.3 76l-3.6 2.2-7.1-10.1c-3.9-5.5-7.1-10.4-7.1-10.8 0-.5 1.5-1.5 3.3-2.4 13.8-6.6 29.3-26 28.5-35.6-.3-3.5-.5-3.7-4.2-4-7.8-.7-23.5 9.8-34.2 22.9-6.4 7.7-8.8 13.2-9.2 20.9-.6 12.4 2.7 15.4 30.4 27.3 26 11.3 40 20.5 43.4 28.7l1.2 3H251v25.9l-9.9-.6-9.8-.6-.5 4.9c-2.1 20.1-28.1 50.6-60.3 70.8-16.9 10.7-38.3 19.8-55.5 23.7-11 2.5-29.8 3.5-36.7 2.1-11.3-2.5-20.5-8.9-25.1-17.6-2.3-4.4-2.7-6.3-2.7-14.1 0-8.3.3-9.6 3.6-16.6 13.7-28.6 71.1-62.1 119.4-69.5l4-.6-6-2.5c-3.3-1.3-9.8-3.8-14.5-5.5-22.9-8.2-36.5-18.2-40.9-30.1-5.9-16.3-2.8-33 9.6-50.4 6.9-9.8 25.3-27.9 36.2-35.6 23.7-16.9 49.6-25.6 63.3-21.5z"/><path d="M181.5 273.1c-25.7 5.5-50.3 15.8-68 28.4-16.3 11.7-24.6 26.3-18.2 32.3 5.4 5.1 18 5.1 32.9.2 32.6-10.9 59.9-35.9 62.4-57.3.4-3.2.5-5.7.3-5.6-.2 0-4.4.9-9.4 2zM319.5 307.5c-23 5-44.8 16.5-58.1 30.8-8 8.5-10.8 14.2-11.2 23.4-.4 6.7-.2 7.4 2.3 9.9s3 2.6 10.6 2.2c7-.4 9.1-1 17.4-5.2 16.6-8.2 34.4-27.6 44-48.1 2.4-5 4.6-10.2 4.9-11.8.8-3.2-.3-3.3-9.9-1.2z"/></svg>